# xmcd
#
# Track frame offsets: 
#        150
#        17420
#        33442
#        44522
#        57015
#        68687
#        84335
#        108780
#        122822
#        139847
#        168365
#        191052
#        237880
#        259595
#        277565
#        288075
#        307122
#
# Disc length: 4379 seconds
#
# Revision: 4
# Processed by: cddbd v1.5.2PL0 Copyright (c) Steve Scherf et al.
# Submitted via: ExactAudioCopyFreeDBPlugin 1.0
#
DISCID=dc111911
DTITLE=Various Artist - Blues Gold [CD 2)
DYEAR=2006
DGENRE=Electric Blues
TTITLE0=Eric Clapton and Duane Allman - Mean Old World
TTITLE1=John Mayall's Bluesbreakers with Eric Clapton - All Your Love
TTITLE2=Paul Butterfield Blues Band - Shake Your Moneymaker
TTITLE3=Albert King - Born Under a Bad Sign
TTITLE4=Etta James - I'd Rather Go Blind
TTITLE5=Taj Mahal - She Caught the Katy (and Left Me a Mule to Ride)
TTITLE6=B.B. King - The Thrill Is Gone
TTITLE7=Little Milton - If Walls Could Talk
TTITLE8=The Allman Brothers Band - Trouble No More [live]
TTITLE9=Luther Allison - Luther's Blues
TTITLE10=Z.Z. Hill - Down Home Blues
TTITLE11=Stevie Ray Vaughan and Double Trouble - Flood Down in Texas
TTITLE12=George Thorogood and The Destroyers - Bad to the Bone
TTITLE13=The Robert Cray Band - Smoking Gun
TTITLE14=Keb' Mo' - Am I Wrong?
TTITLE15=Johnny Lang - Good Morning Little School Girl
TTITLE16=Susan Tedeschi - Just Won't Burn
EXTD=Compilation produced by Andy McKaie.\nExecutive producer: Pat Law
EXTD=rence\nMastered by Gavin Lurssen at The Mastering Lab, Hollywood 
EXTD=US-CA.\n2CD: UM/Hip-O B0005714-02 (2006-01-10), UPC 602498342527,
EXTD=BMG D214507.
EXTT0=(Walter Jacobs]\nRecorded Miami US-FL, 1970-10-02.
EXTT1=(Otis Rush/Willie Dixon]\nRecorded London GB, 1966-04.
EXTT2=(Elmore James]\nRecorded 1965.
EXTT3=(Booker T. Jones/William Bell]\nRecorded Memphis US-TN, 1967-05-
EXTT3=17.
EXTT4=(Ellington Jordan/Billy Foster]\nRecorded Muscle Shoals US-AL, 1
EXTT4=967-08-23.
EXTT5=(Taj Mahal/Yank Rachell]\nRecorded Hollywood US-CA, 1968-05-25.
EXTT6=(Rick Darnell/Roy Hawkins]\nRecorded New York US-NY, 1969-06-24/
EXTT6=25.
EXTT7=(Bobby Miller]\nRecorded Chicago US-IL, 1969-10-16 and 1969-11-14.
EXTT8=(McKinley Morganfield]\nRecorded live at the Fillmore East, New 
EXTT8=York US-NY, 1971-03.
EXTT9=(Luther Allison]\nRecorded Detroit US-MI, prob. late 1973.
EXTT10=(George Jackson]\nRecorded Jackson US-MS, 1981.
EXTT11=(Larry Davis/Joseph Scott]\nRecorded live at the Montreux Jazz 
EXTT11=Festival, Montreux CH-VD, 1982-07-17.
EXTT12=(George Thorogood]\nRecorded 1982.
EXTT13=(Robert Cray/Richard Cousins/Bruce Bromberg]\nRecorded Los Ange
EXTT13=les US-CA, 1986.
EXTT14=(Kevin Moore]\nRecorded Burbank US-CA, 1994.
EXTT15=(Sonny Boy Williamson [I]]\nRecorded Minneapolis US-MN and Memphi
EXTT15=s US-TN, 1996.
EXTT16=(Susan Tedeschi]\nRecorded Brookline and Watertown US-MA, 1997.
PLAYORDER=
